<svg width="300" height="286" viewBox="0 0 300 286" fill="none" xmlns="http://www.w3.org/2000/svg">
<g clip-path="url(#clip0_18_735)">
<path d="M285.262 67.6745C285.408 67.4598 289.038 71.1142 292.34 70.3622C296.453 69.4254 299.462 61.7858 297.232 58.5181C295.755 56.3556 292.084 56.2539 292.161 55.8484C292.242 55.4144 296.193 56.8691 298.342 55.1315C300.953 53.0207 300.408 46.601 297.213 43.2338C296.574 42.5601 295.513 41.441 293.988 41.3524C290.994 41.1783 288.643 45.1206 287.609 46.8534C284.324 52.3625 284.055 58.1423 283.649 58.0882C283.275 58.0382 284.27 53.2014 282.467 52.211C282.072 51.9941 281.603 51.9971 281.136 52.1049C281.254 51.7997 281.339 51.4855 281.382 51.1625C281.653 49.1255 280.034 46.96 278.122 45.1447C280.114 46.3245 282.365 47.1426 284.356 46.5574C288.806 45.2502 291.766 37.0004 289.427 31.936C287.793 28.399 283.627 26.5301 283.765 26.3277C283.911 26.113 287.541 29.7674 290.843 29.0153C294.956 28.0785 297.965 20.4389 295.734 17.1713C294.258 15.0088 290.587 14.9071 290.663 14.5015C290.745 14.0675 294.696 15.5223 296.845 13.7847C299.456 11.6739 298.911 5.25419 295.716 1.88697C295.077 1.21324 294.015 0.0941941 292.491 0.00558366C289.496 -0.168512 287.145 3.77378 286.112 5.50658C282.827 11.0156 282.557 16.7955 282.152 16.7414C281.778 16.6913 282.772 11.8545 280.97 10.8642C279.841 10.2441 278.104 11.4009 277.565 11.7602C271.635 15.711 273.278 24.3018 267.8 33.4414C266.036 36.3842 264.278 38.1414 262.796 39.4707C262.118 31.2875 264.613 25.0057 260.833 20.2475C260.43 19.7401 259.133 18.1064 257.868 18.3503C255.848 18.7398 255.311 23.6486 254.939 23.5813C254.537 23.5085 256.054 17.9247 254.617 11.6734C254.165 9.70715 253.137 5.23371 250.234 4.48074C248.755 4.09736 247.402 4.83676 246.587 5.28191C242.513 7.50676 240.024 13.4495 241.862 16.2595C243.374 18.5727 247.581 18.4002 247.526 18.8383C247.474 19.2478 243.949 18.2182 241.88 19.8236C238.755 22.2494 239.275 30.4437 242.902 32.5972C245.814 34.3259 250.391 31.9615 250.463 32.2105C250.532 32.4454 245.994 32.946 243.354 35.8113C242.258 37.0008 241.506 38.5825 241.081 40.2916C237.486 40.5618 234.409 43.1379 234.293 42.9394C234.163 42.715 239.03 41.0287 239.785 37.7275C240.724 33.615 235.145 27.5907 231.234 28.1833C228.645 28.5755 226.961 31.8394 226.629 31.5947C226.273 31.3329 229.298 28.4038 228.664 25.7136C227.894 22.4455 221.873 20.153 217.454 21.5711C216.57 21.8548 215.101 22.326 214.36 23.6614C212.904 26.2841 215.437 30.1122 216.55 31.7948C220.089 37.1443 225.181 39.8935 224.956 40.2352C224.749 40.5511 220.822 37.5571 219.147 38.7521C218.099 39.5003 218.388 41.5665 218.478 42.2083C219.466 49.2652 227.92 51.5101 233.78 60.4102C238.551 67.6576 236.515 71.591 240.558 73.5555C242.293 74.3988 244.503 74.5619 246.761 74.1558C245.013 85.8601 244.519 105.877 244.519 105.877C244.026 125.9 241.452 142.389 240.325 142.357C239.699 142.338 239.93 137.295 238.035 129.184C236.704 123.498 236.076 123.76 232.623 113.614C227.142 97.5196 224.402 89.4751 224.396 89.431C224.367 89.0813 224.319 88.375 224.119 87.6606C228.175 86.5255 232.115 83.6175 233.483 79.5366C234.578 76.2719 234.29 71.4221 231.627 69.675C229.909 68.5478 227.256 69.0669 224.791 70.0028C226.718 68.7199 228.431 67.0462 228.768 64.9978C229.519 60.4217 223.37 54.1763 217.792 54.0877C213.896 54.0258 210.406 56.9692 210.283 56.7575C210.153 56.5331 215.02 54.8468 215.774 51.5456C216.714 47.4331 211.135 41.4087 207.223 42.0014C204.635 42.3936 202.951 45.6575 202.618 45.4128C202.263 45.1509 205.287 42.2219 204.654 39.5317C203.884 36.2636 197.863 33.9711 193.443 35.3891C192.559 35.6729 191.09 36.1441 190.349 37.4794C188.894 40.1022 191.426 43.9303 192.54 45.6129C196.079 50.9624 201.17 53.7116 200.946 54.0533C200.738 54.3692 196.811 51.3752 195.137 52.5701C194.089 53.3184 194.378 55.3846 194.468 56.0263C195.456 63.0833 203.91 65.3282 209.769 74.2282C214.54 81.4757 212.505 85.4091 216.547 87.3735C217.246 87.7134 218.025 87.9398 218.85 88.0666L218.85 88.0704C219.206 93.604 229.175 108.475 234.723 129.619C237.487 140.153 238.999 145.899 237.911 153.902C236.835 161.835 233.85 167.19 233.904 170.725C233.908 171.056 233.937 171.361 233.998 171.656L250.384 169.505C250.494 169.188 250.58 168.862 250.648 168.527C251.896 162.508 247.344 153.36 249.657 138.606C251.375 127.658 256.082 118.653 258.277 114.457C260.974 109.298 264.16 104.445 267.6 96.9085C269.809 98.1249 272.313 98.7707 274.798 98.4583C278.215 98.0288 282.46 95.6665 282.879 92.5093C283.15 90.4723 281.532 88.3068 279.619 86.4915C281.611 87.6714 283.862 88.4895 285.854 87.9043C290.303 86.597 293.264 78.3472 290.924 73.2829C289.291 69.7458 285.125 67.877 285.262 67.6745ZM218.599 73.0692C218.587 73.0455 218.758 72.971 219.056 72.8501C218.776 73.0078 218.611 73.093 218.599 73.0692ZM273.069 41.2122C272.805 41.0276 272.657 40.9165 272.674 40.8954C272.69 40.8743 272.831 40.9961 273.069 41.2122ZM256.077 49.6586C256.37 49.526 256.542 49.4534 256.551 49.4784C256.56 49.5035 256.385 49.5638 256.077 49.6586ZM242.61 59.2512C242.598 59.2275 242.769 59.153 243.067 59.032C242.786 59.1897 242.622 59.2749 242.61 59.2512ZM247.324 101.579C246.93 101.491 251.715 82.1355 252.5 71.8597C254.771 70.3709 256.637 68.2744 257.494 65.7185C257.508 65.6741 257.522 65.6283 257.536 65.5834C257.991 65.5203 258.443 65.4348 258.89 65.3294C257.289 69.3785 256.395 72.3188 256.395 72.3188C252.237 86.0181 247.682 101.661 247.324 101.579ZM265.183 95.2604C263.87 97.2742 262.331 99.7498 260.212 103.537C254.777 113.238 252.061 118.086 251.347 121.542C251.16 122.465 250.17 127.457 247.901 133.784C246.742 137.012 246.162 138.627 245.722 138.561C244.473 138.371 244.452 125.636 247.908 112.45C248.501 110.205 248.973 108.756 249.871 106.017C251.328 101.548 259.447 76.7069 265.834 61.6372L265.834 61.6352C267.014 60.5046 267.896 59.2114 268.329 57.85C268.468 57.4154 268.546 57.0133 268.576 56.6307C270.104 57.1163 271.706 57.3119 273.301 57.1114C274.193 56.9993 275.141 56.7544 276.063 56.3992C273.512 60.9188 273.553 67.6873 269.297 74.7883C264.836 82.2307 260.409 82.1021 260.392 86.5965C260.38 89.5814 262.324 92.8831 265.185 95.2575L265.183 95.2604ZM274.171 82.2422C274.187 82.2211 274.328 82.343 274.567 82.5591C274.303 82.3744 274.155 82.2634 274.171 82.2422Z" fill="#F2F2F2"/>
<path d="M102.82 62.8882C105.322 62.4714 108.044 65.5268 109.181 66.803C112.217 70.21 112.851 74.1737 113.096 75.8558C116.964 102.405 118.899 115.679 110.894 121.854C103.287 127.722 89.382 126.148 86.6718 120.875C85.616 118.821 86.4987 116.672 87.8951 112.556C90.4759 104.949 91.9971 97.0211 94.2565 89.3126C99.4157 71.7113 98.9826 63.5277 102.82 62.8882Z" fill="#2F2E41"/>
<path d="M34.5572 161.979L22.3828 184.958C19.275 190.823 4.56922 281.18 11.109 282.319L39.4366 283.259L51.1901 283.876L63.2711 284.05L93.2169 285.043L76.3957 167.362L34.5572 161.979Z" fill="#2F2E41"/>
<path d="M64.5292 94.573L88.7515 95.5517L90.7089 103.626L96.542 108.384C98.6867 110.134 99.7388 112.892 99.3039 115.626L96.581 132.742C96.581 132.742 101.719 144.975 88.7515 152.804L75.784 173.846L30.7648 169.197C30.7648 169.197 26.6054 168.708 29.5414 165.772C32.4775 162.836 36.1475 148.4 36.1475 148.4C36.1475 148.4 35.6582 142.039 37.3709 140.326C39.0835 138.614 37.891 134.21 37.891 134.21L44.8574 108.458C46.2149 103.441 50.7677 99.9557 55.9659 99.9557H63.6912L64.5292 94.573Z" fill="#14274E"/>
<path d="M250.864 259.227L39.322 202.69C34.8025 201.482 31.6531 197.846 31.1028 193.201C30.5526 188.555 32.7654 184.284 36.8776 182.053L122.847 135.429C125.02 134.25 127.56 133.822 129.999 134.225L272.095 157.65C275.128 158.15 277.757 159.821 279.497 162.356C281.237 164.891 281.851 167.945 281.227 170.955L264.704 250.691C264.073 253.735 262.269 256.309 259.623 257.941C257.83 259.047 255.823 259.613 253.78 259.613C252.81 259.613 251.831 259.485 250.864 259.227Z" fill="white"/>
<path d="M250.864 259.227L39.322 202.69C34.8025 201.482 31.6531 197.846 31.1028 193.201C30.5526 188.555 32.7654 184.284 36.8776 182.053L122.847 135.429C125.02 134.25 127.56 133.822 129.999 134.225L272.095 157.65C275.128 158.15 277.757 159.821 279.497 162.356C281.237 164.891 281.851 167.945 281.227 170.955L264.704 250.691C264.073 253.735 262.269 256.309 259.623 257.941C257.83 259.047 255.823 259.613 253.78 259.613C252.81 259.613 251.831 259.485 250.864 259.227ZM271.905 158.802L129.809 135.376C127.624 135.016 125.35 135.399 123.404 136.455L37.4343 183.079C33.7512 185.077 31.7692 188.902 32.2621 193.063C32.755 197.224 35.5756 200.481 39.6234 201.562L251.165 258.099C253.855 258.817 256.641 258.409 259.011 256.947C261.38 255.486 262.996 253.18 263.561 250.454L280.084 170.718C280.643 168.022 280.093 165.287 278.534 163.017C276.976 160.746 274.622 159.25 271.905 158.802Z" fill="#CCCCCC"/>
<path d="M241.172 180.752L222.307 228.356C220.478 232.971 215.343 235.333 210.649 233.717L71.9858 186.007C64.3293 183.373 63.474 172.887 70.6023 169.046L115.227 145.005C117.168 143.959 119.419 143.638 121.575 144.099L234.479 168.246C240.098 169.448 243.289 175.411 241.172 180.752Z" fill="#F2F2F2"/>
<path d="M204.847 188.649C209.172 188.649 212.677 186.896 212.677 184.734C212.677 182.572 209.172 180.819 204.847 180.819C200.523 180.819 197.018 182.572 197.018 184.734C197.018 186.896 200.523 188.649 204.847 188.649Z" fill="#FF6884"/>
<path d="M197.507 200.637C201.831 200.637 205.337 198.885 205.337 196.723C205.337 194.561 201.831 192.808 197.507 192.808C193.183 192.808 189.678 194.561 189.678 196.723C189.678 198.885 193.183 200.637 197.507 200.637Z" fill="#3F3D56"/>
<path d="M155.424 191.218C167.18 191.218 176.71 186.452 176.71 180.574C176.71 174.696 167.18 169.931 155.424 169.931C143.668 169.931 134.138 174.696 134.138 180.574C134.138 186.452 143.668 191.218 155.424 191.218Z" fill="#14274E"/>
<path d="M118.479 180.085C118.781 180.085 119.064 179.897 119.171 179.596C119.306 179.214 119.106 178.795 118.724 178.659L103.191 173.154C102.81 173.019 102.39 173.219 102.254 173.601C102.119 173.983 102.319 174.402 102.701 174.538L118.234 180.043C118.315 180.072 118.397 180.085 118.479 180.085Z" fill="#3F3D56"/>
<path d="M121.904 177.394C122.206 177.394 122.49 177.206 122.596 176.905C122.732 176.523 122.532 176.103 122.15 175.968L106.617 170.463C106.236 170.328 105.815 170.527 105.68 170.91C105.544 171.292 105.744 171.711 106.127 171.847L121.659 177.352C121.74 177.38 121.823 177.394 121.904 177.394Z" fill="#3F3D56"/>
<path d="M125.33 174.703C125.632 174.703 125.915 174.515 126.022 174.214C126.157 173.831 125.957 173.412 125.575 173.276L110.042 167.771C109.661 167.637 109.24 167.836 109.105 168.218C108.97 168.6 109.17 169.02 109.552 169.155L125.085 174.66C125.166 174.689 125.248 174.703 125.33 174.703Z" fill="#3F3D56"/>
<path d="M128.755 172.011C129.057 172.011 129.34 171.823 129.447 171.522C129.582 171.14 129.382 170.72 129 170.585L113.467 165.08C113.086 164.945 112.666 165.144 112.53 165.527C112.395 165.909 112.595 166.328 112.977 166.464L128.51 171.969C128.591 171.998 128.673 172.011 128.755 172.011Z" fill="#3F3D56"/>
<path d="M132.181 169.32C132.483 169.32 132.766 169.132 132.872 168.831C133.008 168.449 132.808 168.029 132.426 167.894L116.893 162.389C116.512 162.254 116.092 162.453 115.956 162.835C115.821 163.218 116.021 163.637 116.403 163.773L131.935 169.278C132.016 169.306 132.099 169.32 132.181 169.32Z" fill="#3F3D56"/>
<path d="M135.606 166.629C135.908 166.629 136.191 166.44 136.298 166.139C136.433 165.757 136.233 165.338 135.851 165.202L120.318 159.697C119.937 159.563 119.517 159.762 119.381 160.144C119.246 160.526 119.446 160.946 119.828 161.081L135.361 166.586C135.442 166.615 135.524 166.629 135.606 166.629Z" fill="#3F3D56"/>
<path d="M139.031 163.937C139.333 163.937 139.616 163.749 139.723 163.448C139.858 163.066 139.658 162.646 139.276 162.511L123.744 157.006C123.362 156.871 122.942 157.07 122.806 157.453C122.671 157.835 122.871 158.254 123.253 158.39L138.786 163.895C138.867 163.923 138.95 163.937 139.031 163.937Z" fill="#3F3D56"/>
<path d="M86.6718 102.525C97.7523 102.525 106.735 93.5423 106.735 82.4619C106.735 71.3814 97.7523 62.3989 86.6718 62.3989C75.5914 62.3989 66.6089 71.3814 66.6089 82.4619C66.6089 93.5423 75.5914 102.525 86.6718 102.525Z" fill="#A0616A"/>
<path d="M90.8311 52.6121C85.1824 51.6913 82.149 51.1968 79.0869 51.8781C72.9529 53.2427 69.3948 58.7267 66.8534 62.6435C60.7762 72.0101 63.5238 75.9467 57.556 89.0679C53.2749 98.4805 51.1166 98.0915 50.7052 103.014C49.8418 113.347 58.6317 123.683 68.0768 127.726C68.7076 127.996 78.5232 132.103 81.289 128.704C83.3165 126.213 79.7349 121.924 75.4169 110.354C67.8243 90.0098 71.412 83.2103 72.4809 81.4831C73.1561 80.3919 75.0823 77.6795 76.1509 78.0578C77.1177 78.4 76.2808 80.8823 77.1296 82.9511C79.4036 88.4937 93.2256 89.7244 104.043 85.3979C107.233 84.1219 109.191 83.339 110.649 81.2385C115.598 74.1113 109.69 59.1751 100.373 54.8141C98.2536 53.822 95.7794 53.4187 90.8311 52.6121Z" fill="#2F2E41"/>
<path d="M76.4864 172.147C81.366 174.622 84.0442 179.146 82.4686 182.251C80.893 185.356 75.6608 185.866 70.7799 183.39C68.8166 182.427 67.1123 181.009 65.8097 179.252L45.2673 168.505L50.5164 158.972L70.2103 170.58C72.3975 170.594 74.5496 171.131 76.4864 172.147Z" fill="#A0616A"/>
<path d="M172.562 158.319C177.702 160.193 180.902 164.365 179.708 167.636C178.514 170.907 173.38 172.038 168.239 170.162C166.175 169.441 164.313 168.236 162.81 166.648L141.132 158.429L145.205 148.338L166.144 157.512C168.317 157.264 170.518 157.541 172.562 158.319Z" fill="#A0616A"/>
<path d="M53.152 104.971C53.152 104.971 48.9926 96.408 39.4505 103.014C29.9084 109.62 7.15408 137.023 7.15408 137.023C7.15408 137.023 -4.59007 147.299 2.01602 150.969C8.62211 154.639 56.0881 175.926 56.0881 175.926L68.0769 167.607L25.5043 145.831L49.9588 127.481L53.152 104.971Z" fill="#14274E"/>
<path d="M94.746 110.109C94.746 110.109 97.657 105.95 102.808 110.109C107.958 114.269 122.782 138.219 122.782 138.219L159.339 153.171L153.956 164.182L110.16 148.523L91.0759 122.588L94.746 110.109Z" fill="#14274E"/>
<path d="M92.4216 102.647C86.873 105.48 89.426 109.83 89.2409 110.721C87.4376 119.395 94.0296 128.379 96.581 127.848C98.0778 127.537 98.8646 123.808 98.5383 120.997C98.1153 117.353 101.62 111.585 101.23 109.009C100.272 102.688 106.05 102.57 104.9 100.2C104.226 98.812 95.7281 100.959 92.4216 102.647Z" fill="#2F2E41"/>
<path d="M156.739 191.78C156.762 191.78 156.786 191.779 156.809 191.776C157.129 191.739 157.358 191.448 157.32 191.128L156.004 180.017C155.986 179.863 155.907 179.723 155.785 179.627C155.663 179.531 155.509 179.488 155.354 179.506L134.454 182.019C134.134 182.058 133.906 182.348 133.944 182.668C133.983 182.989 134.274 183.219 134.594 183.178L154.913 180.735L156.16 191.266C156.196 191.562 156.448 191.78 156.739 191.78Z" fill="white"/>
<path d="M49.1156 202.512C55.1332 202.512 60.0114 197.634 60.0114 191.616C60.0114 185.599 55.1332 180.721 49.1156 180.721C43.098 180.721 38.2197 185.599 38.2197 191.616C38.2197 197.634 43.098 202.512 49.1156 202.512Z" fill="#14274E"/>
<path d="M44.1651 189.917L47.6672 196.076C47.8756 196.442 48.4739 196.469 48.6752 196.076C50.0429 193.405 51.9747 191.04 54.3559 189.208C54.6076 189.014 54.7354 188.708 54.5653 188.409C54.4245 188.162 54.0161 188.008 53.7667 188.2C51.2234 190.157 49.1317 192.627 47.6672 195.487H48.6752L45.1731 189.328C44.8018 188.675 43.7928 189.262 44.1651 189.917Z" fill="white"/>
</g>
<defs>
<clipPath id="clip0_18_735">
<rect width="300" height="285.043" fill="white"/>
</clipPath>
</defs>
</svg>
