<svg width="300" height="197" viewBox="0 0 300 197" fill="none" xmlns="http://www.w3.org/2000/svg">
<g clip-path="url(#clip0_18_736)">
<path d="M276.794 94.8713H33.5273C30.2666 94.8713 27.6138 92.2185 27.6138 88.9574V5.91353C27.6138 2.65279 30.2666 0 33.5273 0H276.794C280.055 0 282.708 2.65279 282.708 5.91353V88.9574C282.708 92.2185 280.055 94.8713 276.794 94.8713ZM33.5273 0.705025C30.6554 0.705025 28.3188 3.04162 28.3188 5.91353V88.9574C28.3188 91.8295 30.6554 94.1662 33.5273 94.1662H276.794C279.666 94.1662 282.003 91.8295 282.003 88.9574V5.91353C282.003 3.04162 279.666 0.705025 276.794 0.705025H33.5273Z" fill="#3F3D56"/>
<path d="M300 194.078H0V194.671H300V194.078Z" fill="#E6E6E6"/>
<path d="M300 163.762H0V164.355H300V163.762Z" fill="#E6E6E6"/>
<path d="M136.718 97.9252C136.934 100.632 138.505 102.716 140.228 102.578C141.951 102.441 143.173 100.135 142.957 97.427C142.885 96.344 142.556 95.2939 141.995 94.3644L140.938 82.9052L135.571 83.5161L137.183 94.748C136.777 95.7548 136.617 96.8442 136.718 97.9252Z" fill="#FFB6B6"/>
<path d="M130.307 44.4635C130.307 44.4635 135.324 41.8077 137.868 45.7765C140.412 49.7452 142.168 92.668 142.168 92.668L135.117 93.4208L133.78 63.1743L130.307 44.4635Z" fill="#E6E6E6"/>
<path d="M119.895 161.523L123.98 161.522L125.923 145.767L119.894 145.767L119.895 161.523Z" fill="#FFB6B6"/>
<path d="M133.889 161.43C134.016 161.644 134.084 162.335 134.084 162.585C134.084 163.35 133.463 163.971 132.697 163.971H120.047C119.525 163.971 119.102 163.547 119.102 163.025V162.498C119.102 162.498 118.476 160.916 119.764 158.965C119.764 158.965 121.365 160.492 123.758 158.1L124.464 156.821L129.571 160.557L132.402 160.905C133.022 160.981 133.571 160.893 133.889 161.43Z" fill="#2F2E41"/>
<path d="M143.532 160.846L147.49 159.835L145.473 144.089L139.632 145.581L143.532 160.846Z" fill="#FFB6B6"/>
<path d="M157.068 157.293C157.245 157.469 157.481 158.122 157.542 158.363C157.732 159.105 157.284 159.86 156.542 160.05L144.286 163.181C143.78 163.31 143.265 163.004 143.136 162.498L143.005 161.988C143.005 161.988 142.007 160.609 142.773 158.4C142.773 158.4 144.702 159.484 146.428 156.574L146.796 155.161L152.669 157.516L155.498 157.152C156.117 157.073 156.627 156.852 157.068 157.293Z" fill="#2F2E41"/>
<path d="M116.515 41.0765L116.321 39.671L118.623 34.0492L124.948 33.3464L126.313 41.3948L116.515 41.0765Z" fill="#FFB6B6"/>
<path opacity="0.1" d="M116.515 41.0765L116.321 39.671L118.623 34.0492L124.948 33.3464L126.313 41.3948L116.515 41.0765Z" fill="black"/>
<path d="M109.137 80.7809L106.326 88.511L108.434 92.7274L118.975 153.865H125.983L124.597 99.7547L140.76 153.865H147.696L142.118 117.323L137.949 83.5918L135.42 82.0296L123.191 75.1591L109.137 80.7809Z" fill="#2F2E41"/>
<path d="M127.056 86.0514L122.84 86.7541L117.218 73.4022H129.867L127.056 86.0514Z" fill="#E6E6E6"/>
<path d="M135.489 82.5378L127.056 86.0514L124.245 79.7269L122.84 86.7542L108.083 82.0037L110.191 73.4023L108.083 45.293L115.524 40.3317L116.515 39.6711L125.651 40.3739L126.452 40.8096L131.975 43.8875L133.381 67.0777L135.489 82.5378Z" fill="#2F2E41"/>
<path d="M126.452 40.8096L122.488 57.5908L115.524 40.3317L116.515 39.6711L125.651 40.3739L126.452 40.8096Z" fill="#E6E6E6"/>
<path d="M119.677 39.6711L118.272 42.0917L119.677 42.8985L118.975 57.6345L121.786 61.4558L124.597 55.8079L122.488 42.8985L123.191 39.6711H119.677Z" fill="#2F2E41"/>
<path d="M121.786 38.2656C125.473 38.2656 128.462 35.2767 128.462 31.5896C128.462 27.9026 125.473 24.9137 121.786 24.9137C118.099 24.9137 115.11 27.9026 115.11 31.5896C115.11 35.2767 118.099 38.2656 121.786 38.2656Z" fill="#FFB6B6"/>
<path d="M117.519 32.1753L118.962 32.8048L119.591 29.0276C119.591 29.0276 122.109 27.7686 123.998 28.3981C125.886 29.0276 129.034 28.3981 129.034 28.3981C129.034 28.3981 129.034 22.1028 124.627 22.1028C120.221 22.1028 115.814 22.7323 115.814 24.6209C115.814 26.5095 113.925 28.3981 113.925 28.3981C113.925 28.3981 111.407 32.1753 113.925 34.6934C116.443 37.2115 117.702 37.2115 117.702 37.2115L117.519 32.1753Z" fill="#2F2E41"/>
<path d="M104.565 97.7277C104.492 100.443 105.834 102.681 107.561 102.727C109.289 102.774 110.749 100.61 110.821 97.8946C110.865 96.8102 110.649 95.731 110.19 94.7473L110.355 83.2405L104.954 83.2782L105.365 94.6178C104.854 95.5757 104.58 96.6421 104.565 97.7277Z" fill="#FFB6B6"/>
<path d="M111.248 43.8743C111.248 43.8743 106.68 42.4688 104.572 46.6852C102.464 50.9016 105.275 93.7683 105.275 93.7683H112.366L110.484 63.5508L111.248 43.8743Z" fill="#E6E6E6"/>
<path d="M286.472 123.735L269.438 118.52C269.061 118.405 268.666 118.363 268.273 118.396L181.942 125.744C180.711 125.848 180.402 127.509 181.512 128.05L184.278 129.397H184.204V193.89H186.81V130.63L195.477 134.853C196.14 135.176 196.88 135.308 197.614 135.233L198.536 135.14V193.89H201.142V134.877L267.914 128.132V193.89H270.52V127.869L281.595 126.751V193.89H284.2V126.487L286.221 126.283C287.639 126.14 287.835 124.152 286.472 123.735Z" fill="#3F3D56"/>
<path d="M207.004 125.488C208.633 125.488 232.736 122.557 232.736 122.557L236.319 127.442L211.239 132.328L207.004 125.488Z" fill="white"/>
<path d="M233.458 191.385L229.271 191.377L227.306 175.221L233.487 175.232L233.458 191.385Z" fill="#A0616A"/>
<path d="M219.111 191.265C218.98 191.485 218.91 192.193 218.91 192.449C218.908 193.234 219.544 193.871 220.329 193.872L233.297 193.895C233.833 193.896 234.268 193.462 234.268 192.927L234.269 192.387C234.269 192.387 234.914 190.765 233.596 188.763C233.596 188.763 231.952 190.326 229.503 187.869L228.782 186.557L223.539 190.378L220.636 190.73C220.001 190.807 219.438 190.716 219.111 191.265Z" fill="#2F2E41"/>
<path d="M255.934 183.872L252.63 186.364L241.445 174.806L246.321 171.128L255.934 183.872Z" fill="#A0616A"/>
<path d="M244.558 192.336C244.586 192.587 244.954 193.187 245.106 193.388C245.573 194.008 246.454 194.131 247.073 193.664L257.304 185.946C257.727 185.627 257.811 185.026 257.492 184.603L257.171 184.177C257.171 184.177 256.711 182.515 254.479 181.724C254.479 181.724 254.116 183.936 250.721 183.461L249.37 182.857L247.518 188.995L245.441 191.004C244.987 191.444 244.489 191.708 244.558 192.336Z" fill="#2F2E41"/>
<path d="M247.182 100.374C247.182 104.236 244.051 107.367 240.19 107.367C236.328 107.367 233.197 104.236 233.197 100.374C233.197 96.5126 236.328 93.3821 240.19 93.3821C244.051 93.3821 247.182 96.5126 247.182 100.374Z" fill="#A0616A"/>
<path d="M246.523 140.69C246.523 140.69 220.778 139.233 219.321 142.147C217.864 145.062 227.199 185.095 227.199 185.095L235.528 183.349L231.465 155.262C231.465 155.262 252.948 160.952 255.862 154.152C258.777 147.351 257.938 144.819 257.938 144.819L246.523 140.69Z" fill="#2F2E41"/>
<path d="M253.119 135.798C253.119 135.798 227.906 141.203 227.272 144.399C226.638 147.595 246.23 183.733 246.23 183.733L253.801 179.846L242.452 153.835C242.452 153.835 264.676 153.638 265.687 146.309C266.699 138.98 265.22 136.76 265.22 136.76L253.119 135.798Z" fill="#2F2E41"/>
<path d="M255.995 108.388H243.882L235.594 121.989C235.594 121.989 233.651 130.778 235.594 131.727C237.537 132.675 237.537 142.876 237.537 142.876L257.938 144.819C257.938 144.819 260.852 114.217 259.881 111.302C258.909 108.388 255.995 108.388 255.995 108.388Z" fill="#14274E"/>
<path d="M236.808 117.374L235.594 131.727L221.935 125.93L218.675 124.29C218.036 123.458 217.208 122.79 216.258 122.343C213.898 121.193 211.391 121.478 210.659 122.98C209.927 124.482 211.247 126.632 213.607 127.781C214.544 128.254 215.581 128.495 216.63 128.485L226.169 133.903L226.18 133.881L226.222 133.957L241.18 140.204L244.622 121.363L236.808 117.374Z" fill="#A0616A"/>
<path d="M235.351 101.344C235.351 101.344 228.065 102.316 230.979 96.0012C230.979 96.0012 230.535 92.578 232.7 92.3466C234.865 92.1152 237.78 88.2292 237.78 88.2292C237.78 88.2292 244.462 84.829 247.921 88.2292C251.381 91.6295 261.581 111.545 261.581 111.545L254.781 118.831C254.781 118.831 250.692 108.084 245.936 109.329C241.18 110.574 236.808 114.286 236.808 114.286C236.808 114.286 231.981 111.87 234.152 109.765C236.322 107.659 235.351 101.344 235.351 101.344Z" fill="#2F2E41"/>
<path d="M245.066 112.031C245.066 112.031 241.666 107.659 239.237 111.059C236.808 114.46 234.865 118.831 234.865 118.831L244.58 122.232L245.066 112.031Z" fill="#14274E"/>
<path d="M281.952 192.923L270.665 157.047L270.667 157.047H270.693L270.647 156.989L270.646 156.987L269.842 154.432L269.843 154.432C271.067 153.376 271.901 151.868 272.067 150.132L266.908 121.755C267.263 118.029 264.406 114.772 260.664 114.638L249.023 114.609C245.713 114.492 242.847 116.883 242.365 120.159L242.107 121.899L238.541 146.162C238.411 147.034 238.463 147.894 238.668 148.699L236.101 149.034L235.323 149.139L232.245 149.539L232.235 149.543L231.851 149.591H231.434V160.014H231.46V193.329C231.46 193.544 231.636 193.72 231.851 193.72C232.069 193.72 232.245 193.544 232.245 193.329V160.014H236.811L241.368 193.29C241.397 193.486 241.564 193.629 241.759 193.629C241.775 193.629 241.795 193.629 241.811 193.626C242.026 193.596 242.176 193.398 242.147 193.183L237.606 160.014H259.517C261.693 160.014 263.709 159.324 265.35 158.142L274.038 193.229C274.083 193.407 274.243 193.525 274.418 193.525C274.45 193.525 274.482 193.521 274.515 193.513C274.725 193.459 274.852 193.246 274.798 193.036L266.027 157.609C266.144 157.512 266.26 157.408 266.37 157.301L269.858 157.096L281.204 193.158C281.256 193.326 281.411 193.433 281.578 193.433C281.617 193.433 281.656 193.427 281.696 193.415C281.902 193.35 282.017 193.129 281.952 192.923ZM269.097 154.989C269.126 154.972 269.152 154.953 269.178 154.936L269.262 155.203L269.097 154.989Z" fill="#E6E6E6"/>
<path d="M60.479 132.113L68.0753 127.282L71.1636 129.145L60.479 141.422V132.113Z" fill="#FFB6B6"/>
<path d="M50.0911 113.415C50.0911 113.415 45.0456 114.602 47.42 121.428C49.7943 128.254 57.511 142.501 59.8853 141.61C62.2597 140.72 62.5565 131.816 62.5565 131.816C62.5565 131.816 62.2597 132.113 61.0725 130.926C59.8853 129.738 59.8853 130.281 59.8853 128.971C59.8853 127.661 58.9143 126.69 58.9143 126.69L57.8078 124.396C57.8078 124.396 57.8078 113.711 53.3559 113.118C48.904 112.524 50.0911 113.415 50.0911 113.415Z" fill="#E6E6E6"/>
<path d="M73.6638 128.826C75.6342 126.855 76.245 124.271 75.028 123.054C73.811 121.837 71.2271 122.448 69.2567 124.418C67.2863 126.389 66.6755 128.973 67.8925 130.19C69.1096 131.407 71.6934 130.796 73.6638 128.826Z" fill="#FFB6B6"/>
<path d="M30.4385 152.74L35.6218 161.319L65.8284 159.532L57.7852 149.165L30.4385 152.74Z" fill="#E6E6E6"/>
<path d="M39.4643 192.866C39.2884 192.866 39.1351 192.737 39.1106 192.558L30.0844 126.635C30.0576 126.44 30.1945 126.259 30.39 126.233C30.5855 126.204 30.7658 126.343 30.7927 126.538L39.8189 192.46C39.8457 192.656 39.7089 192.836 39.5133 192.863C39.4968 192.865 39.4805 192.866 39.4643 192.866Z" fill="#E6E6E6"/>
<path d="M30.4385 192.95C30.2411 192.95 30.0811 192.79 30.0811 192.593V126.599C30.0811 126.402 30.2411 126.242 30.4385 126.242C30.6359 126.242 30.796 126.402 30.796 126.599V192.593C30.796 192.79 30.6359 192.95 30.4385 192.95Z" fill="#E6E6E6"/>
<path d="M75.7483 192.688C75.5963 192.688 75.4554 192.59 75.4074 192.438L54.0483 124.549C53.9891 124.361 54.0937 124.16 54.282 124.101C54.4703 124.042 54.6711 124.146 54.7303 124.335L76.0893 192.223C76.1486 192.411 76.0439 192.612 75.8556 192.671C75.8199 192.683 75.7838 192.688 75.7483 192.688Z" fill="#E6E6E6"/>
<path d="M69.2242 192.772C69.0646 192.772 68.9192 192.664 68.878 192.502L54.0428 132.586C53.9942 132.395 54.1099 132.2 54.3012 132.151C54.4931 132.103 54.6871 132.218 54.7358 132.41L69.571 192.326C69.6196 192.517 69.5039 192.712 69.3126 192.761C69.283 192.768 69.2534 192.772 69.2242 192.772Z" fill="#E6E6E6"/>
<path d="M30.4385 127.651L55.1935 127.27L59.7513 153.276H30.7959L30.4385 127.651Z" fill="#E6E6E6"/>
<path d="M68.4809 165.891L62.2422 176.875L69.4859 178.47L72.5058 170.658L68.4809 165.891Z" fill="#FFB6B6"/>
<path d="M64.4829 174.801C64.4829 174.801 64.2405 173.01 62.8153 173.578C61.3901 174.147 57.2769 176.259 57.2769 176.259C57.2769 176.259 68.0051 193.691 70.0411 192.879C72.0771 192.067 69.6398 187.14 69.6398 187.14L70.1778 178.43L64.4829 174.801Z" fill="#2F2E41"/>
<path d="M40.8903 144.578C40.8903 144.578 38.6643 154.818 45.4906 158.379C52.3169 161.941 75.6152 153.185 75.6152 153.185L64.9306 169.195L72.3505 172.18C72.3505 172.18 89.2678 149.92 88.0806 146.359C86.8934 142.797 78.88 142.501 78.88 142.501L60.7755 143.391L56.0268 141.907L40.8903 144.578Z" fill="#2F2E41"/>
<path d="M59.2512 170.766L49.4434 178.726L55.6101 182.848L61.2657 176.67L59.2512 170.766Z" fill="#FFB6B6"/>
<path d="M52.2851 177.61C52.2851 177.61 52.7111 175.854 51.1767 175.865C49.6424 175.876 45.0425 176.346 45.0425 176.346C45.0425 176.346 48.692 196.487 50.8839 196.472C53.0758 196.456 52.5987 190.98 52.5987 190.98L56.2692 183.062L52.2851 177.61Z" fill="#2F2E41"/>
<path d="M41.3076 140.874C41.3076 140.874 35.5083 149.602 40.5706 155.403C45.6329 161.204 70.52 161.527 70.52 161.527L54.7424 172.551L60.5672 178.032C60.5672 178.032 84.4246 163.454 84.6148 159.705C84.805 155.955 77.4489 152.763 77.4489 152.763L60.2616 147.004L56.3784 143.894L41.3076 140.874Z" fill="#2F2E41"/>
<path d="M56.2055 120.659C56.2055 120.659 50.5664 118.582 47.8952 118.582C47.64 118.582 47.3877 118.612 47.1354 118.665C45.4259 119.027 43.8529 120.496 43.099 121.298C42.8052 121.612 42.636 121.823 42.636 121.823C42.636 121.823 42.6538 121.618 42.6894 121.259C42.8645 119.371 43.5116 113.177 44.672 109.212C45.0875 107.796 45.5654 106.666 46.1144 106.117C47.3936 104.834 47.9842 103.297 48.2573 102.151C48.4888 101.169 48.4888 100.477 48.4888 100.477L46.3252 99.5455L45.9245 96.9278C45.8533 97.2364 45.5238 97.8389 44.4168 98.9935C44.3218 99.0914 44.2179 99.1745 44.1081 99.2457C42.5114 100.249 39.2555 98.5038 37.5015 97.4056C38.2316 94.868 39.5553 92.5471 41.9593 92.1672C47.5984 91.2768 47.5984 88.0121 51.16 91.5736C51.4538 91.8674 51.7506 92.1494 52.0474 92.4224C53.1871 94.6009 53.6026 97.5214 53.751 99.5515C53.8578 100.973 53.8311 101.961 53.8311 101.961C53.8311 101.961 55.3151 110.865 57.6894 112.646C60.0638 114.427 56.2055 120.659 56.2055 120.659Z" fill="#2F2E41"/>
<path d="M45.2241 106.413L41.2139 112.296L50.2696 114.724V106.413H45.2241Z" fill="#FFB6B6"/>
<path opacity="0.1" d="M45.2241 106.413L41.2139 112.296L50.2696 114.724V106.413H45.2241Z" fill="black"/>
<path d="M50.8332 112.079L42.2261 108.518C42.2261 108.518 30.6511 113.563 31.5415 123.357C32.4319 133.152 40.7422 150.069 40.7422 150.069L57.3626 142.946L55.5819 123.951L50.8332 112.079Z" fill="#E6E6E6"/>
<path d="M47.1428 109.04C51.3366 109.04 54.7363 105.64 54.7363 101.446C54.7363 97.2523 51.3366 93.8525 47.1428 93.8525C42.949 93.8525 39.5493 97.2523 39.5493 101.446C39.5493 105.64 42.949 109.04 47.1428 109.04Z" fill="#FFB6B6"/>
<path d="M57.393 98.6967C55.9091 100.181 54.7219 101.665 54.7219 101.665L54.1283 99.2903C54.1283 99.2903 53.9918 99.3912 53.7514 99.5515C52.8105 100.193 50.2848 101.804 48.2577 102.151C47.3554 102.306 46.5541 102.208 46.0317 101.665C44.9247 100.51 44.5953 99.9076 44.524 99.5989L44.1233 102.217L41.9597 103.149C41.9597 103.149 41.9597 106.407 44.3341 108.788C44.4498 108.903 44.5626 109.046 44.6724 109.212C45.8062 110.922 46.6194 115.106 47.1358 118.665C47.5929 121.829 47.8125 124.494 47.8125 124.494C47.8125 124.494 45.5658 121.68 43.0994 121.298C42.9629 121.277 42.8264 121.262 42.6898 121.259C42.6453 121.253 42.5978 121.253 42.5533 121.253C39.8822 121.253 34.2431 123.331 34.2431 123.331C34.2431 123.331 30.3847 117.098 32.7591 115.317C35.1335 113.536 36.6174 104.633 36.6174 104.633C36.6174 104.633 36.5195 100.822 37.5019 97.4056C38.232 94.868 39.5557 92.5471 41.9597 92.1672C47.5988 91.2768 47.5988 88.0121 51.1603 91.5736C51.4542 91.8674 51.751 92.1494 52.0478 92.4225C55.3659 95.4735 58.7553 97.3344 57.393 98.6967Z" fill="#2F2E41"/>
<path d="M24.0887 138.537H21.2686V194.234H24.0887V138.537Z" fill="#3F3D56"/>
<path d="M92.4759 138.537H89.6558V194.234H92.4759V138.537Z" fill="#3F3D56"/>
<path d="M74.4976 114.919H55.8145V133.602H74.4976V114.919Z" fill="#14274E"/>
<path d="M45.0454 134.784L52.6417 129.953L55.73 131.816L45.0454 144.093V134.784Z" fill="#FFB6B6"/>
<path d="M34.6575 116.086C34.6575 116.086 29.612 117.273 31.9864 124.099C34.3607 130.926 42.0774 145.172 44.4517 144.281C46.8261 143.391 47.1229 134.487 47.1229 134.487C47.1229 134.487 46.8261 134.784 45.6389 133.597C44.4518 132.409 44.4517 132.952 44.4517 131.642C44.4517 130.332 43.4807 129.361 43.4807 129.361L42.3742 127.067C42.3742 127.067 42.3742 116.383 37.9223 115.789C33.4704 115.195 34.6575 116.086 34.6575 116.086Z" fill="#E6E6E6"/>
<path d="M58.2302 131.497C60.2006 129.526 60.8114 126.942 59.5944 125.725C58.3774 124.508 55.7935 125.119 53.8231 127.09C51.8527 129.06 51.2419 131.644 52.459 132.861C53.676 134.078 56.2599 133.467 58.2302 131.497Z" fill="#FFB6B6"/>
<path d="M98.1161 136.422H12.8081V142.767H98.1161V136.422Z" fill="#3F3D56"/>
<path d="M184.789 85.6605H172.19C171.191 85.6605 170.381 86.4702 170.381 87.4689V92.665C170.381 93.6637 171.191 94.4733 172.19 94.4733H184.789C185.787 94.4733 186.597 93.6637 186.597 92.665V87.4689C186.597 86.4702 185.787 85.6605 184.789 85.6605Z" fill="#3F3D56"/>
<path d="M211.227 90.8566H198.628C197.629 90.8566 196.82 91.6662 196.82 92.6649V92.6649C196.82 93.6637 197.629 94.4733 198.628 94.4733H211.227C212.226 94.4733 213.035 93.6637 213.035 92.6649C213.035 91.6662 212.226 90.8566 211.227 90.8566Z" fill="#14274E"/>
</g>
<defs>
<clipPath id="clip0_18_736">
<rect width="300" height="196.472" fill="white"/>
</clipPath>
</defs>
</svg>
