<svg width="300" height="255" viewBox="0 0 300 255" fill="none" xmlns="http://www.w3.org/2000/svg">
<g clip-path="url(#clip0_18_737)">
<path d="M289.202 207.918H10.7981C4.84415 207.918 0 203.074 0 197.12V163.612H300V197.12C300 203.074 295.156 207.918 289.202 207.918Z" fill="#E6E6E6"/>
<path d="M186.032 202.313H115.036V253.025H186.032V202.313Z" fill="#E6E6E6"/>
<path d="M190.302 246.619H110.765V253.025H190.302V246.619Z" fill="#E6E6E6"/>
<path d="M299.733 177.758H0V7.41023C0 3.32431 3.32431 0 7.41023 0H292.323C296.409 0 299.733 3.32431 299.733 7.41023V177.758Z" fill="#3F3D56"/>
<path d="M292.526 7.74023H6.93945V168.416H292.526V7.74023Z" fill="white"/>
<path d="M62.2467 103.507C64.4325 101.701 67.1362 101.365 68.2854 102.756C69.4346 104.148 68.5941 106.739 66.4072 108.546C65.5436 109.279 64.5168 109.795 63.4128 110.051L54.0547 117.586L50.6121 113.12L60.203 106.165C60.6622 105.129 61.363 104.217 62.2467 103.507Z" fill="#FFB6B6"/>
<path d="M8.15811 120.51C8.15337 120.177 8.1565 117.27 10.3086 115.432C12.7808 113.322 16.2692 114.176 17.4927 114.476C20.3191 115.168 20.5509 116.38 23.2051 117.626C28.1709 119.957 21.9489 118.764 24.9037 118.016C25.9265 117.758 40.6408 116.737 44.3035 114.483C51.4269 110.099 56.2806 107.44 56.2806 107.44L59.4535 113.786C59.4535 113.786 54.8654 120.165 48.4081 124.892C41.7844 129.739 38.4725 132.163 33.4394 133.1C33.0059 133.181 22.3461 135.001 13.7605 128.586C11.8022 127.123 8.21403 124.443 8.15811 120.51Z" fill="#14274E"/>
<path d="M18.0007 104.371C24.1052 104.371 29.0539 99.4223 29.0539 93.3177C29.0539 87.2132 24.1052 82.2645 18.0007 82.2645C11.8962 82.2645 6.94751 87.2132 6.94751 93.3177C6.94751 99.4223 11.8962 104.371 18.0007 104.371Z" fill="#FFB6B6"/>
<path d="M104.565 167.578L93.1821 155.925L87.3059 162.055L95.7869 173.227L104.199 174.189L104.565 167.578Z" fill="#FFB6B6"/>
<path d="M39.5663 145.727C40.2322 145.782 42.348 146.206 44.3703 145.094C45.7505 144.334 46.4583 143.205 46.6974 142.846C49.6634 138.392 61.0474 131.445 71.2642 131.018C73.5779 130.921 75.1009 131.189 76.4851 131.911C78.4479 132.934 79.2315 134.399 81.7222 137.833C83.0846 139.711 84.5922 141.48 85.971 143.346C94.0435 154.27 97.1038 155.128 96.7911 158.63C96.444 162.516 92.2532 166.202 89.4678 165.777C88.3271 165.603 87.8854 164.809 86.3613 163.204C81.8928 158.496 80.044 159.365 76.8626 155.759C73.1482 151.549 73.6344 148.058 71.6965 147.923C69.8994 147.798 69.1357 150.776 65.2991 154.732C63.5435 156.543 62.2933 157.373 58.4847 160.015C43.6531 170.305 43.4164 171.028 40.4232 171.849C39.1136 172.208 29.8188 174.756 26.5078 170.701C21.3263 164.355 33.567 145.229 39.5663 145.727Z" fill="#2F2E41"/>
<path d="M101.085 170.211C101.922 169.835 102.901 169.395 103.216 168.384C103.429 167.7 103.307 166.857 102.866 166.274C102.358 165.602 101.606 165.513 101.636 165.394C101.682 165.213 103.461 165.284 105.414 165.974C105.783 166.104 107.452 166.714 109.576 168.372C111.277 169.701 111.048 169.967 112.115 170.733C115.39 173.084 118.462 171.231 120.234 173.436C120.918 174.287 121.21 175.495 120.922 176.472C120.344 178.433 117.533 179.108 115.997 179.457C112.297 180.296 109.496 179.611 106.572 179.118C96.6278 177.443 91.0404 178.969 90.2925 176.665C90.151 176.229 90.3809 176.266 91.1477 173.066C91.9045 169.908 91.8797 169.041 92.5242 168.788C93.4944 168.407 94.1458 170.139 96.5898 170.731C98.7556 171.257 100.543 170.454 101.085 170.211Z" fill="#2F2E41"/>
<path d="M84.3279 205.696L81.4519 189.662L73.1477 191.435L73.8916 205.441L80.3121 210.961L84.3279 205.696Z" fill="#FFB6B6"/>
<path d="M42.814 151.117C43.3339 151.536 44.8466 153.075 47.1448 153.29C48.7132 153.437 49.9329 152.9 50.3324 152.737C55.288 150.717 68.6083 151.361 77.3023 156.745C79.2712 157.964 80.3808 159.041 81.121 160.415C82.1706 162.364 81.996 164.017 82.129 168.256C82.2018 170.575 82.4557 172.886 82.5489 175.204C83.0941 188.776 85.1447 191.205 82.9193 193.927C80.4501 196.947 74.9122 197.645 72.8464 195.728C72.0004 194.944 72.0803 194.039 71.7209 191.855C70.6671 185.45 68.6489 185.131 68.0414 180.361C67.3321 174.791 69.6948 172.176 68.1669 170.976C66.7501 169.863 64.4459 171.899 59.0498 173.018C56.5806 173.53 55.0798 173.515 50.4447 173.563C32.3943 173.748 31.7924 174.214 28.8549 173.212C27.5697 172.774 18.4478 169.663 17.9852 164.448C17.2613 156.287 38.1298 147.335 42.814 151.117Z" fill="#2F2E41"/>
<path d="M79.9697 205.921C80.8735 206.08 81.9303 206.266 82.7585 205.606C83.319 205.16 83.691 204.393 83.6537 203.664C83.6108 202.822 83.038 202.326 83.13 202.245C83.2701 202.121 84.7023 203.178 85.9305 204.846C86.1623 205.161 87.2011 206.603 88.0273 209.167C88.6893 211.222 88.3503 211.313 88.803 212.546C90.1928 216.331 93.7749 216.522 94.0032 219.342C94.0913 220.43 93.6543 221.593 92.8676 222.24C91.2878 223.539 88.5828 222.519 87.1159 221.945C83.5832 220.562 81.6508 218.422 79.5079 216.372C72.2203 209.402 66.74 207.527 67.4149 205.201C67.5426 204.76 67.712 204.92 70.1433 202.703C72.5429 200.515 73.0094 199.783 73.6847 199.936C74.7013 200.166 74.2679 201.965 75.9575 203.827C77.4547 205.478 79.384 205.818 79.9697 205.921Z" fill="#2F2E41"/>
<path d="M19.5076 95.4308C19.938 93.8915 19.3975 93.3306 19.9484 92.6397C19.9484 92.6396 20.17 92.3616 22.1519 91.6113C21.5672 88.2187 22.005 87.645 22.005 87.645C22.5096 86.9838 23.5204 86.824 24.2085 86.9105C25.6639 87.0934 25.9215 88.409 26.8528 88.3795C28.1392 88.3387 29.6821 85.7636 29.2032 83.5317C28.8126 81.7111 27.1281 80.3591 26.7059 80.5937C26.2872 80.8263 24.7801 79.8005 24.2085 80.0061C23.8182 80.1464 21.9809 79.9597 21.5643 80.153C21.1093 80.3641 19.8064 81.6782 19.6819 81.5126C18.8162 80.362 18.8346 79.9603 18.3324 79.7123C17.4425 79.2728 16.475 80.085 14.8068 80.8875C11.3743 82.5385 10.3692 81.5537 8.78378 82.9441C7.98289 83.6465 7.55341 84.9889 6.72715 87.645C5.57163 91.3595 4.99387 93.2168 5.55193 94.9901C6.12105 96.7986 6.95915 96.405 8.19617 98.9565C9.57317 101.797 9.09858 103.448 10.3997 104.098C11.4053 104.601 13.0214 104.281 13.6316 103.364C14.6762 101.793 11.9761 99.6686 12.8971 97.1936C13.4624 95.6744 15.2063 94.5224 16.2758 94.8432C17.4851 95.2059 17.5741 97.3741 18.3324 97.3405C18.9818 97.3118 19.4327 95.699 19.5076 95.4308Z" fill="#2F2E41"/>
<path d="M11.1344 106.008C13.3962 103.472 22.6094 106.097 23.4742 110.121C23.8298 111.776 22.5168 112.475 22.8865 114.381C23.4274 117.169 26.4896 116.979 28.7626 119.817C31.9896 123.845 28.6652 127.783 32.2883 134.507C33.0625 135.943 33.715 137.154 35.0794 138.326C38.2103 141.015 41.1241 140.093 42.7184 142.586C43.9105 144.451 43.4207 146.749 43.306 147.287C42.8355 149.495 41.5603 150.033 40.6617 151.841C39.1668 154.851 40.8594 157.06 40.9555 160.655C41.0758 165.154 38.6852 171.39 33.9042 173.436C28.533 175.735 22.0549 171.927 18.9202 168.147C17.0496 165.892 16.5067 163.811 15.6883 161.243C12.031 149.765 9.96483 150.803 7.16799 141.705C3.97069 131.304 3.34214 119.118 7.16799 115.263C7.67509 114.751 9.07064 113.57 9.95914 111.443C11.1547 108.581 10.1218 107.143 11.1344 106.008Z" fill="#14274E"/>
<path d="M44.5558 165.045C46.3095 167.273 46.5813 169.984 45.1631 171.1C43.7449 172.216 41.1742 171.314 39.4202 169.085C38.7073 168.204 38.2158 167.165 37.9867 166.055L30.6755 156.521L34.4533 153.639L41.9476 162.939C42.9728 163.422 43.8671 164.145 44.5558 165.045Z" fill="#FFB6B6"/>
<path d="M17.7801 115.673C18.1054 115.6 20.9518 115.01 23.1897 116.742C25.7603 118.732 25.6358 122.321 25.5921 123.58C25.4913 126.488 24.3516 126.962 23.6736 129.815C22.4052 135.152 24.8208 140.112 26.1554 142.852C26.6173 143.8 28.1014 146.703 31.0556 149.828C36.8012 155.907 41.9278 159.106 41.9278 159.106L36.4204 164.001C36.4204 164.001 27.6478 161.327 21.7036 155.97C15.6061 150.475 6.22924 131.032 4.28539 126.296C4.11799 125.888 6.48923 132.519 11.0168 122.806C12.0495 120.59 13.9417 116.53 17.7801 115.673Z" fill="#14274E"/>
<path d="M158.736 111.112L152.16 107.998C154.857 111.761 157.181 117.64 158.425 122.318C160.532 117.96 163.928 112.629 167.289 109.444L160.339 111.232C164.622 90.2441 180.729 75.1768 199.174 75.1768L199.435 74.4187C180.169 74.4187 163.108 89.2771 158.736 111.112Z" fill="#3F3D56"/>
<path d="M189.001 143.091H147.453C145.691 143.091 144.257 141.658 144.257 139.895C144.257 138.133 145.691 136.699 147.453 136.699H189.001C190.763 136.699 192.197 138.133 192.197 139.895C192.197 141.658 190.763 143.091 189.001 143.091Z" fill="#14274E"/>
<path d="M244.285 143.091H202.738C200.975 143.091 199.542 141.658 199.542 139.895C199.542 138.133 200.975 136.699 202.738 136.699H244.285C246.048 136.699 247.481 138.133 247.481 139.895C247.481 141.658 246.048 143.091 244.285 143.091Z" fill="#E6E6E6"/>
<path d="M219.69 56.1476H179.303C178.285 56.1476 177.457 55.3191 177.457 54.301C177.457 53.2828 178.285 52.4547 179.303 52.4547H219.69C220.708 52.4547 221.536 53.2828 221.536 54.301C221.536 55.3191 220.708 56.1476 219.69 56.1476Z" fill="#3F3D56"/>
<path d="M241.361 75.8481H157.632C156.613 75.8481 155.785 75.0196 155.785 74.0014C155.785 72.9832 156.613 72.1552 157.632 72.1552H241.361C242.38 72.1552 243.208 72.9832 243.208 74.0014C243.208 75.0196 242.38 75.8481 241.361 75.8481Z" fill="#3F3D56"/>
<path d="M18.1541 253.497C18.1541 253.829 18.4204 254.095 18.7522 254.095H281.248C281.58 254.095 281.846 253.829 281.846 253.497C281.846 253.165 281.58 252.899 281.248 252.899H18.7522C18.4204 252.899 18.1541 253.165 18.1541 253.497Z" fill="#3F3D56"/>
<path d="M82.6096 111.723C82.5384 111.723 82.4675 111.721 82.3959 111.716C78.1898 111.446 63.7978 109.41 55.2058 94.5539C54.4978 93.3307 54.6373 91.7756 55.5527 90.6848L71.4646 71.7263C72.1153 70.951 73.1205 70.5043 74.1386 70.5166C74.8421 70.5334 76.5081 70.7111 76.8317 71.9953C78.7431 79.5826 86.8146 88.5038 96.5216 89.6863C97.5056 89.8059 98.2954 90.6836 98.6344 92.0342C98.899 93.0856 98.6546 94.1694 97.9636 95.0076L85.2168 110.486C84.5693 111.272 83.6191 111.723 82.6096 111.723ZM74.0774 71.2793C73.2999 71.2793 72.5436 71.6276 72.0492 72.2166L56.1374 91.1751C55.4273 92.0212 55.3185 93.2253 55.8662 94.1716C64.2687 108.7 78.3344 110.69 82.4451 110.955C83.2845 111.011 84.0906 110.653 84.6278 110.001L97.3748 94.5226C97.91 93.8732 98.0993 93.0342 97.8945 92.2201C97.6945 91.4232 97.2043 90.538 96.4292 90.4433C86.4014 89.2221 78.0648 80.0133 76.0917 72.1816C75.9319 71.5475 74.9697 71.2997 74.1227 71.2796C74.1076 71.2793 74.0925 71.2793 74.0774 71.2793Z" fill="#3F3D56"/>
<path d="M64.8486 95.1778L76.3204 83.481C77.1046 82.6814 75.876 81.4509 75.0909 82.2515L63.6191 93.9483C62.8349 94.7478 64.0634 95.9784 64.8486 95.1778Z" fill="#E6E6E6"/>
<path d="M71.7726 98.4732C74.9386 95.6354 77.6899 92.3497 79.9428 88.7443C80.5375 87.7926 79.0337 86.9187 78.4414 87.8667C76.2633 91.3523 73.6035 94.5005 70.543 97.2437C69.708 97.9921 70.941 99.2185 71.7726 98.4732Z" fill="#E6E6E6"/>
<path d="M78.0128 102.419C80.8954 99.2259 83.3492 95.6621 85.281 91.8179C85.7821 90.8207 84.2826 89.9392 83.7795 90.9403C81.9131 94.6545 79.569 98.1037 76.7833 101.19C76.0351 102.018 77.261 103.252 78.0128 102.419Z" fill="#E6E6E6"/>
<path d="M73.0978 81.3612C79.4855 81.3612 84.6637 76.2921 84.6637 70.0391C84.6637 63.786 79.4855 58.7169 73.0978 58.7169C66.7102 58.7169 61.532 63.786 61.532 70.0391C61.532 76.2921 66.7102 81.3612 73.0978 81.3612Z" fill="#14274E"/>
<path d="M79.116 75.4098C77.3372 71.0364 75.5584 66.6631 73.7796 62.2897C73.5339 61.6857 72.7643 61.6642 72.5246 62.2897C70.767 66.8748 69.6185 71.6592 69.0664 76.5373C68.9723 77.3682 70.2746 77.3615 70.3679 76.5373C70.584 74.6284 70.9047 72.7338 71.3165 70.8593C72.7823 70.9362 74.2601 70.7718 75.6745 70.3802C76.4033 72.1721 77.1322 73.9639 77.8609 75.7558C78.1724 76.5214 79.4319 76.1866 79.116 75.4098ZM71.6116 69.5727C72.05 67.7782 72.5756 66.0051 73.1854 64.2605L75.1802 69.1648C74.0118 69.4715 72.8169 69.6079 71.6116 69.5727Z" fill="white"/>
</g>
<defs>
<clipPath id="clip0_18_737">
<rect width="300" height="254.095" fill="white"/>
</clipPath>
</defs>
</svg>
